:version 1.10
:name ASF
:units
  mass 1
  length 1
  angle deg
:documentation
  ASF file generated by Kaydara
:root
  axis xyz
  order  tx ty tz rx ry rz
  position 0 0 0
  orientation 0 0 0
:bonedata
  begin
    id 1
    name RightUpLegDummy
    direction -0.718183 -0.695806 0.00816078
    length 4.904
    axis 0 0 0 xyz
  end
  begin
    id 2
    name RightUpLeg
    direction -0.0736652 -0.994202 0.0783343
    length 17.4976
    axis -2.72909 -3.00389 -4.00133 xyz
    dof rx ry rz
  end
  begin
    id 3
    name RightLeg
    direction -0.0389037 -0.994596 -0.0962598
    length 16.5821
    axis 3.95836 -18.5909 -4.46993 xyz
    dof rx ry rz
  end
  begin
    id 4
    name RightFoot
    direction -0.311643 -0.412678 0.855906
    length 3.77069
    axis -1.99483 -18.8351 -3.27644 xyz
    dof rx ry rz
  end
  begin
    id 5
    name RightToes
    direction -0.317852 0.0389852 0.947339
    length 3.85082
    axis -2.00228 -18.1713 -3.25211 xyz
    dof rx ry rz
  end
  begin
    id 6
    name SpineDummy
    direction 8.3039e-015 1 4.44677e-016
    length 4.6813
    axis 0 0 0 xyz
  end
  begin
    id 7
    name Spine
    direction -0.000262373 0.999988 0.00493267
    length 10.1015
    axis -0.00246081 0.00062579 0.0150362 xyz
    dof rx ry rz
  end
  begin
    id 8
    name Spine1
    direction 0 0 0
    length 0
    axis -0.00349562 0.000650293 0.0196666 xyz
    dof rx ry rz
  end
  begin
    id 9
    name HEadDummy
    direction -0.000343232 0.999999 0.00123745
    length 3.43865
    axis -0.00349562 0.000650293 0.0196666 xyz
  end
  begin
    id 10
    name HEad
    direction -0.0461221 0.980933 0.188796
    length 5.12695
    axis -0.00351404 -7.04812 0.0199272 xyz
    dof rx ry rz
  end
  begin
    id 11
    name LeftShoulder1Dummy
    direction 0.998904 -0.0399089 -0.0244534
    length 3.5433
    axis -0.00349562 0.000650293 0.0196666 xyz
  end
  begin
    id 12
    name LeftShoulder1
    direction 0.99951 1.64443e-005 0.0312999
    length 4.05031
    axis -0.00349562 0.000650293 0.0196666 xyz
    dof rx ry rz
  end
  begin
    id 13
    name LeftArm
    direction 0.984791 0.0515299 0.165927
    length 12.9126
    axis -64.823 -10.7743 5.20463 xyz
    dof rx ry rz
  end
  begin
    id 14
    name LeftForeArm
    direction 0.984968 0.0534808 0.16425
    length 10.8596
    axis -30.0462 -7.70601 1.87451 xyz
    dof rx ry rz
  end
  begin
    id 15
    name LeftHand
    direction 0.975871 0.0289682 0.216418
    length 6.62295
    axis -20.1348 -6.98077 1.86072 xyz
    dof rx ry rz
  end
  begin
    id 16
    name RightShoulderDummy
    direction -0.998877 -0.0405946 -0.0244307
    length 3.5433
    axis -0.00349562 0.000650293 0.0196666 xyz
  end
  begin
    id 17
    name RightShoulder
    direction -0.998933 -0.0249743 -0.0388558
    length 4.05031
    axis -0.0205316 -4.02113 1.41395 xyz
    dof rx ry rz
  end
  begin
    id 18
    name RightArm
    direction -0.997559 0.068664 0.0127103
    length 12.9638
    axis -67.3882 1.84188 -6.15987 xyz
    dof rx ry rz
  end
  begin
    id 19
    name RightForeArm
    direction -0.991508 0.0912848 0.0926241
    length 10.8312
    axis -22.1975 3.41087 -4.28711 xyz
    dof rx ry rz
  end
  begin
    id 20
    name RightHand
    direction -0.989262 0.0600788 0.133232
    length 6.57864
    axis -12.2911 2.17515 -4.39675 xyz
    dof rx ry rz
  end
  begin
    id 21
    name LeftUpLegDummy
    direction 0.718183 -0.695806 0.00816078
    length 4.904
    axis 0 0 0 xyz
  end
  begin
    id 22
    name LeftUpLeg
    direction 0.0831398 -0.99469 0.0606531
    length 17.4976
    axis -1.71016 2.29552 4.63832 xyz
    dof rx ry rz
  end
  begin
    id 23
    name LeftLeg
    direction 0.0498442 -0.991778 -0.117862
    length 16.5821
    axis 5.13757 15.5727 5.13348 xyz
    dof rx ry rz
  end
  begin
    id 24
    name LeftFoot
    direction 0.269026 -0.433896 0.85986
    length 3.77069
    axis -0.576502 15.6961 4.10267 xyz
    dof rx ry rz
  end
  begin
    id 25
    name LeftToes
    direction 0.277311 0.0251143 0.960452
    length 3.85048
    axis -0.576502 15.6961 4.10267 xyz
    dof rx ry rz
  end
:hierarchy
  begin
    root RightUpLegDummy SpineDummy LeftUpLegDummy
    RightUpLegDummy RightUpLeg
    RightUpLeg RightLeg
    RightLeg RightFoot
    RightFoot RightToes
    SpineDummy Spine
    Spine Spine1
    Spine1 HEadDummy LeftShoulder1Dummy RightShoulderDummy
    HEadDummy HEad
    LeftShoulder1Dummy LeftShoulder1
    LeftShoulder1 LeftArm
    LeftArm LeftForeArm
    LeftForeArm LeftHand
    RightShoulderDummy RightShoulder
    RightShoulder RightArm
    RightArm RightForeArm
    RightForeArm RightHand
    LeftUpLegDummy LeftUpLeg
    LeftUpLeg LeftLeg
    LeftLeg LeftFoot
    LeftFoot LeftToes
  end

:SAMPLES-PER-SECOND 30
:FULLY-SPECIFIED
:DEGREES
139
root  8.34492 37.2374 0.747083 8.10218 64.6219 -1.06377
RightUpLeg  -38.3844 -13.7082 4.99551
RightLeg  31.6796 8.33963 -6.06262
RightFoot  -3.15276 -0.00569887 0.0768086
RightToes  5.82077e-011 -3.18055e-015 -2.98177e-016
Spine  22.6861 -0.983947 8.59129
Spine1  9.49247 -2.16919 7.80417
HEad  21.6193 -0.245171 -10.6197
LeftShoulder1  -3.88251e-019 9.70628e-020 -3.87848e-018
LeftArm  -25.1234 39.1983 -76.3563
LeftForeArm  -25.0741 -22.925 1.09212
LeftHand  -0.663623 -2.61269 10.3155
RightShoulder  7.08687 10.6779 32.9711
RightArm  14.1951 -35.5079 23.2246
RightForeArm  -16.559 25.8549 -13.1342
RightHand  -1.53036 4.24151 -18.1921
LeftUpLeg  -35.2284 -6.34373 5.20292
LeftLeg  49.7193 -2.35514 15.4768
LeftFoot  -6.40564 0.203952 -4.0648
LeftToes  7.79675e-011 9.80247e-012 -3.28897e-011
140
root  7.97549 37.0734 0.557704 11.0441 66.2843 0.561444
RightUpLeg  -40.99 -13.2166 4.24898
RightLeg  32.4968 6.77742 -7.33373
RightFoot  -2.79073 -0.0809497 0.855731
RightToes  5.82077e-011 -3.18055e-015 -2.98177e-016
Spine  23.3655 -1.12829 7.92534
Spine1  9.22621 -2.39788 7.6672
HEad  21.1076 -0.0392858 -10.2785
LeftShoulder1  -3.88251e-019 9.70628e-020 -3.87848e-018
LeftArm  -27.029 39.7462 -75.0433
LeftForeArm  -22.5704 -20.607 0.131068
LeftHand  -0.676934 -2.07554 11.2817
RightShoulder  6.99631 10.6478 32.5708
RightArm  14.6572 -34.8601 23.7733
RightForeArm  -17.453 26.2401 -13.2931
RightHand  -1.48042 4.1775 -17.7275
LeftUpLeg  -34.6166 -4.37441 4.23545
LeftLeg  46.9354 -0.762565 15.942
LeftFoot  -9.15097 0.358403 -11.3056
LeftToes  7.79675e-011 9.80247e-012 -3.28897e-011
141
root  7.61679 36.8815 0.353314 14.3824 67.4925 2.56356
RightUpLeg  -43.7879 -12.6964 3.34657
RightLeg  33.4626 5.27406 -8.6743
RightFoot  -2.30364 -0.166844 1.75243
RightToes  5.82077e-011 -3.18055e-015 -2.98177e-016
Spine  23.9763 -1.05248 6.9382
Spine1  9.23913 -2.37864 7.20444
HEad  20.3709 -0.172334 -9.92573
LeftShoulder1  -3.88251e-019 9.70628e-020 -3.87848e-018
LeftArm  -28.253 39.5926 -74.1529
LeftForeArm  -20.0239 -18.2208 -0.489309
LeftHand  -0.695481 -1.79786 12.0416
RightShoulder  6.87403 10.614 32.013
RightArm  14.9502 -34.3367 24.4111
RightForeArm  -17.0984 26.7875 -13.5971
RightHand  -1.47579 4.55708 -17.0237
LeftUpLeg  -34.5404 -2.33661 2.86015
LeftLeg  43.3005 -0.366534 14.5128
LeftFoot  -13.2418 -0.0377033 -13.6884
LeftToes  7.79675e-011 9.80247e-012 -3.28897e-011
142
root  7.24706 36.5856 0.175603 17.0803 68.5642 3.88992
RightUpLeg  -46.8035 -11.6646 2.59468
RightLeg  35.0989 3.81175 -10.2949
RightFoot  -2.83513 -0.172218 1.90471
RightToes  5.82077e-011 -3.18055e-015 -2.98177e-016
Spine  24.8789 -0.902017 6.17811
Spine1  9.02323 -2.197 6.69132
HEad  19.3478 -0.361139 -9.58448
LeftShoulder1  -3.88251e-019 9.70628e-020 -3.87848e-018
LeftArm  -28.1025 39.0083 -73.179
LeftForeArm  -17.7804 -16.246 -0.882937
LeftHand  -0.698592 -1.83814 12.0291
RightShoulder  6.81274 10.6236 31.6767
RightArm  15.2824 -34.0024 24.8577
RightForeArm  -15.5817 27.715 -14.1635
RightHand  -1.51657 5.10827 -16.5955
LeftUpLeg  -36.3866 -0.783445 1.94279
LeftLeg  42.1548 -1.43076 12.9176
LeftFoot  -15.7152 -0.304294 -11.3596
LeftToes  7.79675e-011 9.80247e-012 -3.28897e-011
143
root  6.8363 36.136 0.05718 18.6358 69.886 3.87485
RightUpLeg  -50.2831 -9.93442 2.17947
RightLeg  37.7891 3.148 -11.8205
RightFoot  -4.78097 -0.0719704 1.07045
RightToes  5.82077e-011 -3.18055e-015 -2.98177e-016
Spine  25.9768 -0.603451 5.90234
Spine1  8.4634 -1.97524 6.73551
HEad  17.8945 -0.58765 -9.09803
LeftShoulder1  -3.88251e-019 9.70628e-020 -3.87848e-018
LeftArm  -26.6389 38.1507 -71.8857
LeftForeArm  -15.8147 -15.2967 -1.23477
LeftHand  -0.646319 -1.82916 11.1507
RightShoulder  6.79131 10.6541 31.5028
RightArm  15.9355 -33.9629 25.008
RightForeArm  -13.1001 29.2287 -15.1129
RightHand  -1.59596 5.60722 -16.6828
LeftUpLeg  -40.5383 0.355524 1.96619
LeftLeg  44.7443 -3.48281 11.8566
LeftFoot  -16.3711 -0.305436 -9.0477
LeftToes  7.79675e-011 9.80247e-012 -3.28897e-011
144
root  6.41532 35.5452 -0.00116043 18.8452 71.6013 2.47407
RightUpLeg  -54.0632 -8.4905 2.27114
RightLeg  41.2003 3.7752 -12.6441
RightFoot  -6.76013 -0.00289804 0.37066
RightToes  5.82077e-011 -3.18055e-015 -2.98177e-016
Spine  27.0549 -0.187821 6.2601
Spine1  7.86098 -1.70346 7.14987
HEad  16.1965 -1.19104 -8.24237
LeftShoulder1  -3.88251e-019 9.70628e-020 -3.87848e-018
LeftArm  -24.4667 36.9756 -70.4441
LeftForeArm  -13.9022 -15.5207 -1.58927
LeftHand  -0.548675 -1.64263 9.75199
RightShoulder  6.7345 10.6498 31.2177
RightArm  16.598 -34.3003 24.9532
RightForeArm  -10.0254 31.2665 -16.4323
RightHand  -1.6418 5.94333 -16.6625
LeftUpLeg  -45.8606 1.59175 2.65638
LeftLeg  49.4541 -6.25756 10.2997
LeftFoot  -16.344 -0.292756 -8.7418
LeftToes  7.79675e-011 9.80247e-012 -3.28897e-011
145
root  6.01307 34.8637 -0.00208244 18.5197 73.4462 0.647831
RightUpLeg  -58.0299 -8.37953 2.86823
RightLeg  44.7966 5.08989 -12.8327
RightFoot  -7.19021 -0.04906 1.23335
RightToes  5.82077e-011 -3.18055e-015 -2.98177e-016
Spine  27.8985 0.14878 6.86657
Spine1  7.47192 -1.31833 6.98411
HEad  14.6619 -2.30859 -6.95492
LeftShoulder1  -3.88251e-019 9.70628e-020 -3.87848e-018
LeftArm  -21.7759 35.5961 -68.9043
LeftForeArm  -12.1005 -16.7313 -1.73138
LeftHand  -0.468795 -1.56064 8.46237
RightShoulder  6.67007 10.6221 30.9406
RightArm  17.1054 -34.7303 24.8006
RightForeArm  -7.17003 33.4789 -17.9203
RightHand  -1.56654 6.18836 -15.5856
LeftUpLeg  -51.2783 3.07955 3.24978
LeftLeg  54.4717 -8.91347 8.07927
LeftFoot  -16.2259 -0.280753 -8.6357
LeftToes  7.79675e-011 9.80247e-012 -3.28897e-011
146
root  5.62347 34.0766 0.0524199 17.9469 75.0647 -1.11766
RightUpLeg  -62.1553 -9.35862 3.84889
RightLeg  48.742 6.3229 -13.1197
RightFoot  -6.65766 -0.171907 3.27246
RightToes  5.82077e-011 -3.18055e-015 -2.98177e-016
Spine  28.5525 0.349111 7.2594
Spine1  7.26463 -0.883912 6.13486
HEad  13.6071 -3.49762 -5.56272
LeftShoulder1  -3.88251e-019 9.70628e-020 -3.87848e-018
LeftArm  -18.3116 34.3469 -67.1667
LeftForeArm  -10.9625 -18.711 -1.3326
LeftHand  -0.435358 -1.85375 7.54904
RightShoulder  6.62214 10.6039 30.7285
RightArm  17.6505 -34.8608 24.8087
RightForeArm  -5.03894 35.286 -19.1958
RightHand  -1.42542 6.80338 -13.5314
LeftUpLeg  -56.2505 4.59685 3.60125
LeftLeg  59.3897 -10.8665 5.89379
LeftFoot  -16.5721 -0.277235 -7.66421
LeftToes  7.79675e-011 9.80247e-012 -3.28897e-011
147
root  5.24584 33.1296 0.137387 15.8208 76.2456 -3.65124
RightUpLeg  -65.9918 -10.1932 4.91687
RightLeg  53.46 7.40935 -13.8699
RightFoot  -7.0162 -0.241743 4.7762
RightToes  5.82077e-011 -3.18055e-015 -2.98177e-016
Spine  29.455 0.557953 7.47974
Spine1  7.05355 -0.459931 5.37104
HEad  13.1971 -4.16487 -4.54455
LeftShoulder1  -3.88251e-019 9.70628e-020 -3.87848e-018
LeftArm  -14.1319 33.3206 -65.3392
LeftForeArm  -11.1206 -21.0817 -0.268408
LeftHand  -0.424511 -2.41979 6.82934
RightShoulder  6.47912 10.5624 30.0648
RightArm  17.9459 -34.7155 25.5044
RightForeArm  -3.66874 36.017 -19.7564
RightHand  -1.35684 8.03667 -11.7416
LeftUpLeg  -60.1794 6.05388 4.20183
LeftLeg  64.4495 -12.2198 3.90855
LeftFoot  -18.174 -0.34552 -6.67673
LeftToes  7.79675e-011 9.80247e-012 -3.28897e-011
148
root  4.89588 32.0339 0.228378 11.9021 77.0948 -7.02949
RightUpLeg  -69.1496 -10.2821 5.64862
RightLeg  58.7856 8.53079 -14.9506
RightFoot  -8.68822 -0.183138 5.17852
RightToes  5.82077e-011 -3.18055e-015 -2.98177e-016
Spine  30.6165 0.802412 7.65568
Spine1  6.97315 -0.0715095 4.96028
HEad  13.4781 -4.21843 -3.95069
LeftShoulder1  -3.88251e-019 9.70628e-020 -3.87848e-018
LeftArm  -10.0343 32.1749 -63.6674
LeftForeArm  -12.4957 -23.2874 1.16498
LeftHand  -0.426731 -2.81963 6.53075
RightShoulder  6.16827 10.4617 28.6244
RightArm  17.2205 -34.4857 27.2202
RightForeArm  -3.43675 35.2582 -19.2547
RightHand  -1.39423 9.10489 -11.1924
LeftUpLeg  -62.8833 7.40111 5.12738
LeftLeg  69.5848 -13.1599 1.91679
LeftFoot  -21.1112 -0.475245 -5.97593
LeftToes  7.79675e-011 9.80247e-012 -3.28897e-011
149
root  4.57643 30.8673 0.323644 7.12811 77.9803 -10.6019
RightUpLeg  -71.6355 -10.074 5.97773
RightLeg  64.0598 9.57929 -16.4221
RightFoot  -10.5493 -0.0958692 5.38496
RightToes  5.82077e-011 -3.18055e-015 -2.98177e-016
Spine  31.6795 0.816849 7.82719
Spine1  7.24324 0.249858 4.325
HEad  14.3386 -4.07885 -3.43718
LeftShoulder1  -3.88251e-019 9.70628e-020 -3.87848e-018
LeftArm  -6.91766 30.6804 -62.2397
LeftForeArm  -14.3082 -25.021 2.5389
LeftHand  -0.472742 -2.80234 7.23191
RightShoulder  5.81516 10.3505 26.9494
RightArm  15.3608 -34.0734 29.4609
RightForeArm  -4.69761 33.27 -17.9101
RightHand  -1.40899 8.83881 -11.526
LeftUpLeg  -64.8577 8.38802 6.19903
LeftLeg  74.6629 -13.7167 -0.0403201
LeftFoot  -24.4818 -0.591521 -5.26407
LeftToes  7.79675e-011 9.80247e-012 -3.28897e-011
